<svg xmlns="http://www.w3.org/2000/svg" width="720" height="720" viewBox="0 0 720 720" role="img">
  <title>brown-shrike</title>
  <defs>
    <filter id="soft-shadow" x="-30%" y="-30%" width="160%" height="160%">
      <feDropShadow dx="0" dy="28" stdDeviation="24" flood-color="#13251a" flood-opacity="0.20"/>
    </filter>
    <linearGradient id="body" x1="0" x2="1" y1="0" y2="1">
      <stop offset="0" stop-color="#9f6a3e"/>
      <stop offset="1" stop-color="#5d4630"/>
    </linearGradient>
  </defs>
  <g filter="url(#soft-shadow)">
    <path d="M290 378 C220 340 150 318 96 308 C127 356 152 404 232 418 Z" fill="#5d4630" opacity="0.96"/>
    <ellipse cx="328" cy="356" rx="157" ry="118" fill="url(#body)"/>
    <ellipse cx="408" cy="273" rx="92" ry="72" fill="#9f6a3e"/>
    <ellipse cx="374" cy="414" rx="120" ry="76" fill="#ead4b3" opacity="0.9"/>
    <ellipse cx="285" cy="376" rx="98" ry="67" fill="#5d4630" opacity="0.78"/>
    
      <ellipse cx="396" cy="255" rx="92" ry="58" fill="#ead4b3" opacity="0.98"/>
      <path d="M368 263 C405 250 451 251 482 263" fill="none" stroke="#1f2528" stroke-width="24" stroke-linecap="round"/>
      <path d="M267 354 C318 379 367 390 420 383" fill="none" stroke="#fff9e6" stroke-width="8" stroke-linecap="round" opacity="0.7"/>
    <path d="M246 366 C294 394 355 407 421 396" fill="none" stroke="#ffffff" stroke-width="7" stroke-linecap="round" opacity="0.30"/>
    <path d="M252 390 C305 419 354 426 410 416" fill="none" stroke="#ffffff" stroke-width="5" stroke-linecap="round" opacity="0.24"/>
    <circle cx="425" cy="268" r="15" fill="#101513"/>
    <circle cx="419" cy="262" r="5" fill="#ffffff" opacity="0.88"/>
    <path d="M474 286 C532 270 548 278 476 315 C494 304 506 307 516 320" fill="#1f2528" stroke="#1f2528" stroke-width="5" stroke-linejoin="round"/>
    <path d="M322 474 L302 540" stroke="#1f2528" stroke-width="10" stroke-linecap="round"/>
    <path d="M378 472 L397 540" stroke="#1f2528" stroke-width="10" stroke-linecap="round"/>
    <path d="M302 540 L258 552" stroke="#1f2528" stroke-width="7" stroke-linecap="round"/>
    <path d="M397 540 L438 552" stroke="#1f2528" stroke-width="7" stroke-linecap="round"/>
  </g>
</svg>
