<svg xmlns="http://www.w3.org/2000/svg" width="720" height="720" viewBox="0 0 720 720" role="img">
  <title>yellow-rumped-warbler</title>
  <defs>
    <filter id="soft-shadow" x="-30%" y="-30%" width="160%" height="160%">
      <feDropShadow dx="0" dy="28" stdDeviation="24" flood-color="#13251a" flood-opacity="0.20"/>
    </filter>
    <linearGradient id="body" x1="0" x2="1" y1="0" y2="1">
      <stop offset="0" stop-color="#8fb552"/>
      <stop offset="1" stop-color="#6f8f45"/>
    </linearGradient>
  </defs>
  <g filter="url(#soft-shadow)">
    <path d="M290 378 C220 340 150 318 96 308 C127 356 152 404 232 418 Z" fill="#6f8f45" opacity="0.96"/>
    <ellipse cx="328" cy="356" rx="157" ry="118" fill="url(#body)"/>
    <ellipse cx="408" cy="273" rx="92" ry="72" fill="#8fb552"/>
    <ellipse cx="374" cy="414" rx="120" ry="76" fill="#f3e66a" opacity="0.9"/>
    <ellipse cx="285" cy="376" rx="98" ry="67" fill="#6f8f45" opacity="0.78"/>
    
      <ellipse cx="330" cy="410" rx="74" ry="42" fill="#f3e66a" opacity="0.95"/>
      <ellipse cx="232" cy="374" rx="54" ry="31" fill="#d8c54e" opacity="0.96"/>
      <path d="M334 240 C370 228 407 230 436 244" fill="none" stroke="#f8f5d4" stroke-width="10" stroke-linecap="round" opacity="0.9"/>
    <path d="M246 366 C294 394 355 407 421 396" fill="none" stroke="#ffffff" stroke-width="7" stroke-linecap="round" opacity="0.30"/>
    <path d="M252 390 C305 419 354 426 410 416" fill="none" stroke="#ffffff" stroke-width="5" stroke-linecap="round" opacity="0.24"/>
    <circle cx="425" cy="268" r="15" fill="#101513"/>
    <circle cx="419" cy="262" r="5" fill="#ffffff" opacity="0.88"/>
    <path d="M472 286 L542 299 L472 320 Z" fill="#2c3b2d"/>
    <path d="M322 474 L302 540" stroke="#2c3b2d" stroke-width="10" stroke-linecap="round"/>
    <path d="M378 472 L397 540" stroke="#2c3b2d" stroke-width="10" stroke-linecap="round"/>
    <path d="M302 540 L258 552" stroke="#2c3b2d" stroke-width="7" stroke-linecap="round"/>
    <path d="M397 540 L438 552" stroke="#2c3b2d" stroke-width="7" stroke-linecap="round"/>
  </g>
</svg>
